<?xml version="1.0" encoding="utf-8"?>
<!-- Generator: Adobe Illustrator 16.0.0, SVG Export Plug-In . SVG Version: 6.00 Build 0)  -->
<!DOCTYPE svg PUBLIC "-//W3C//DTD SVG 1.1//EN" "http://www.w3.org/Graphics/SVG/1.1/DTD/svg11.dtd">
<svg version="1.1" id="Layer_1" xmlns="http://www.w3.org/2000/svg" xmlns:xlink="http://www.w3.org/1999/xlink" x="0px" y="0px"
	 width="717px" height="306.14px" viewBox="0 0 717 306.14" enable-background="new 0 0 717 306.14" xml:space="preserve">
<g>
	<path fill="#493632" d="M344.29,171.175c-0.516-1.155-1.227-1.734-2.133-1.734c-1.344,0-3.516,0.734-6.516,2.203
		c-6.375,3.094-11.782,4.641-16.219,4.641c-7.938,0-14.594-1.367-19.969-4.102c-5.375-2.734-9.406-6.695-12.094-11.883
		c-2.688-5.187-4.031-11.453-4.031-18.797c0-7.062,1.578-13.312,4.734-18.75c3.156-5.438,7.554-9.656,13.195-12.656
		c5.641-3,12.07-4.5,19.289-4.5c4.125,0,7.648,0.547,10.57,1.641c2.922,1.094,5.617,2.625,8.086,4.594
		c0.625,0.594,1.266,0.891,1.922,0.891s1.172-0.461,1.547-1.383c0.375-0.921,0.656-2.383,0.844-4.383h2.203
		c-0.25,4.531-0.375,12.532-0.375,24h-2.203c-0.312-3.344-0.766-6.171-1.359-8.484c-0.594-2.312-1.484-4.375-2.672-6.188
		c-1.188-1.812-2.797-3.422-4.828-4.828c-1.312-0.906-2.859-1.609-4.641-2.109c-1.781-0.5-3.532-0.75-5.25-0.75
		c-4.594,0-8.313,1.617-11.156,4.852c-2.844,3.234-4.859,7.312-6.047,12.234c-1.188,4.922-1.781,10.071-1.781,15.445
		c0,11.156,1.367,19.484,4.102,24.984c2.734,5.501,6.508,8.25,11.32,8.25c2,0,3.578-0.391,4.734-1.172
		c1.343-0.938,2.016-2.531,2.016-4.781V158.8c0-3.218-0.25-5.57-0.75-7.055c-0.5-1.484-1.406-2.508-2.719-3.07
		s-3.391-0.906-6.234-1.031v-1.922c4.031,0.219,10.141,0.328,18.328,0.328c6.812,0,11.75-0.109,14.812-0.328v1.922
		c-1.188,0.125-2.039,0.383-2.555,0.773c-0.516,0.391-0.875,1.133-1.078,2.227c-0.204,1.094-0.305,2.844-0.305,5.25v19.031h-1.922
		C345.094,173.581,344.806,172.331,344.29,171.175z"/>
	<path fill="#493632" d="M406.235,170.917c0.812,1.329,2.203,1.992,4.172,1.992v2.016c-2-0.188-3.984-0.281-5.953-0.281
		c-6.72,0-12.281,0.453-16.688,1.359v-6.938c-2.906,4.812-8,7.219-15.281,7.219c-5.094,0-8.703-1.281-10.828-3.844
		c-0.969-1.155-1.681-2.702-2.133-4.641c-0.453-1.938-0.68-4.516-0.68-7.734V135.55c0-2.969-0.398-5.117-1.195-6.445
		c-0.797-1.328-2.18-1.992-4.148-1.992v-2.016c2,0.188,3.984,0.281,5.953,0.281c6.625,0,12.188-0.438,16.688-1.312v41.156
		c0,2.062,0.375,3.586,1.125,4.57s1.938,1.477,3.562,1.477c1.188,0,2.312-0.297,3.375-0.891c1.062-0.593,1.922-1.413,2.578-2.461
		c0.656-1.047,0.984-2.227,0.984-3.539V135.55c0-2.969-0.406-5.117-1.219-6.445c-0.813-1.328-2.203-1.992-4.172-1.992v-2.016
		c1.999,0.188,3.984,0.281,5.953,0.281c6.656,0,12.218-0.438,16.688-1.312v40.406C405.017,167.441,405.422,169.589,406.235,170.917z
		"/>
	<path fill="#493632" d="M438.274,128.073c-1.016-1.609-2.883-2.414-5.602-2.414c-0.813,0-1.681,0.157-2.602,0.469
		c-0.922,0.312-1.742,0.703-2.461,1.172c4.281,1.594,6.422,4.484,6.422,8.672c0,1.5-0.383,2.859-1.148,4.078
		c-0.767,1.219-1.852,2.188-3.258,2.906c-1.406,0.719-3.017,1.078-4.828,1.078c-1.563,0-2.938-0.367-4.125-1.102
		c-1.188-0.734-2.109-1.742-2.766-3.023c-0.656-1.281-0.984-2.703-0.984-4.266c0-1.938,0.539-3.648,1.617-5.133
		c1.078-1.484,2.523-2.711,4.336-3.68c4.031-2.062,9.156-3.094,15.375-3.094c3.656,0,6.75,0.352,9.281,1.055
		s4.656,1.961,6.375,3.773c1.249,1.312,2.086,2.977,2.508,4.992s0.633,4.836,0.633,8.461v25.688c0,1.531,0.109,2.602,0.328,3.211
		c0.218,0.609,0.593,0.914,1.125,0.914c0.499,0,0.961-0.117,1.383-0.352s0.961-0.586,1.617-1.055l0.938,1.641
		c-1.5,1.25-3.251,2.148-5.25,2.695c-2,0.547-4.406,0.82-7.219,0.82c-3.375,0-5.853-0.68-7.43-2.039
		c-1.578-1.359-2.398-3.101-2.461-5.227c-1.344,2.22-3.234,3.984-5.672,5.297s-5.126,1.969-8.062,1.969c-3.781,0-6.743-1-8.883-3
		c-2.141-1.999-3.211-4.671-3.211-8.016c0-3.281,0.984-6.016,2.953-8.203c1.969-2.187,5.046-3.968,9.234-5.344
		c3.405-1.219,5.93-2.18,7.57-2.883s3.016-1.547,4.125-2.531c1.108-0.984,1.664-2.148,1.664-3.492v-8.578
		C439.798,131.503,439.289,129.683,438.274,128.073z M436.048,150.269c-3.125,3.031-4.688,6.641-4.688,10.828
		c0,4.531,1.624,6.797,4.875,6.797c1.343,0,2.531-0.531,3.562-1.594v-20.25C439.329,146.831,438.079,148.237,436.048,150.269z"/>
	<path fill="#493632" d="M500.173,123.737c3.124,0,5.374,0.961,6.75,2.883c1.375,1.922,2.062,4.195,2.062,6.82
		c0,2.875-0.805,5.164-2.414,6.867c-1.61,1.704-3.743,2.555-6.398,2.555c-2.782,0-4.906-0.617-6.375-1.852
		c-1.47-1.234-2.203-2.914-2.203-5.039c0-3.812,1.641-6.797,4.922-8.953c-1.156,0-2.188,0.219-3.094,0.656
		c-1.625,0.688-2.977,1.821-4.055,3.398c-1.078,1.578-1.617,3.305-1.617,5.18v28.781c0,2.032,0.281,3.617,0.844,4.758
		c0.562,1.142,1.437,1.945,2.625,2.414c1.188,0.469,2.781,0.703,4.781,0.703v2.016c-7.875-0.25-13.048-0.375-15.516-0.375
		c-2.375,0-7.5,0.125-15.375,0.375v-2.016c1.343,0,2.406-0.203,3.188-0.609c0.78-0.405,1.343-1.108,1.688-2.109
		c0.344-1,0.516-2.391,0.516-4.172V135.55c0-2.969-0.406-5.117-1.219-6.445c-0.813-1.328-2.203-1.992-4.172-1.992v-2.016
		c2.031,0.188,4.015,0.281,5.953,0.281c6.656,0,12.218-0.438,16.688-1.312v6.891C490.251,126.144,494.391,123.737,500.173,123.737z"
		/>
	<path fill="#493632" d="M561.088,170.823c0.797,1.329,2.18,1.992,4.148,1.992v2.016c-2-0.188-3.984-0.281-5.953-0.281
		c-6.627,0-12.188,0.438-16.688,1.312v-6.797c-1.312,2.501-2.891,4.329-4.734,5.484c-1.846,1.156-4.172,1.734-6.984,1.734
		c-3.814,0-7.189-0.938-10.126-2.812c-2.938-1.875-5.25-4.797-6.938-8.766c-1.688-3.968-2.531-8.983-2.531-15.047
		c0-5.656,0.874-10.422,2.625-14.297c1.75-3.875,4.219-6.781,7.406-8.719c3.188-1.938,6.954-2.906,11.298-2.906
		c4.188,0,7.516,0.813,9.984,2.438v-14.812c0-2.969-0.406-5.117-1.219-6.445c-0.814-1.328-2.203-1.992-4.172-1.992v-2.016
		c1.998,0.188,3.984,0.281,5.953,0.281c6.719,0,12.297-0.453,16.734-1.359v64.547C559.893,167.348,560.291,169.495,561.088,170.823z
		 M538.096,126.925c-2.971,0-5.188,1.898-6.656,5.695c-1.471,3.797-2.203,9.586-2.203,17.367c0,7.875,0.578,13.391,1.734,16.547
		c1.154,3.157,2.734,4.734,4.734,4.734c1.188,0,2.303-0.297,3.352-0.891c1.047-0.593,1.898-1.413,2.555-2.461
		c0.656-1.047,0.984-2.227,0.984-3.539V128.19C541.189,127.347,539.689,126.925,538.096,126.925z"/>
	<path fill="#493632" d="M591.955,170.19c0.344,1.001,0.906,1.704,1.688,2.109c0.779,0.406,1.844,0.609,3.188,0.609v2.016
		c-6.875-0.25-11.422-0.375-13.641-0.375c-2.221,0-7.016,0.125-14.391,0.375v-2.016c1.342,0,2.406-0.203,3.188-0.609
		c0.779-0.405,1.342-1.108,1.688-2.109c0.344-1,0.516-2.391,0.516-4.172V135.55c0-2.969-0.406-5.117-1.219-6.445
		c-0.814-1.328-2.203-1.992-4.172-1.992v-2.016c2.031,0.188,4.014,0.281,5.953,0.281c6.656,0,12.217-0.438,16.688-1.312v41.953
		C591.439,167.8,591.609,169.19,591.955,170.19z M589.986,101.94c1.811,1.406,2.719,3.469,2.719,6.188
		c0,2.688-0.908,4.734-2.719,6.141c-1.812,1.406-4.391,2.109-7.734,2.109c-3.406,0-6-0.695-7.781-2.086
		c-1.781-1.39-2.672-3.445-2.672-6.164s0.891-4.781,2.672-6.188s4.375-2.109,7.781-2.109
		C585.596,99.831,588.174,100.534,589.986,101.94z"/>
	<path fill="#493632" d="M624.604,128.073c-1.016-1.609-2.883-2.414-5.602-2.414c-0.814,0-1.682,0.157-2.602,0.469
		c-0.922,0.312-1.742,0.703-2.461,1.172c4.281,1.594,6.422,4.484,6.422,8.672c0,1.5-0.383,2.859-1.148,4.078
		c-0.768,1.219-1.852,2.188-3.258,2.906c-1.406,0.719-3.018,1.078-4.828,1.078c-1.564,0-2.938-0.367-4.125-1.102
		c-1.189-0.734-2.109-1.742-2.766-3.023c-0.656-1.281-0.984-2.703-0.984-4.266c0-1.938,0.539-3.648,1.617-5.133
		c1.078-1.484,2.523-2.711,4.336-3.68c4.031-2.062,9.156-3.094,15.375-3.094c3.656,0,6.75,0.352,9.281,1.055
		s4.656,1.961,6.375,3.773c1.248,1.312,2.086,2.977,2.508,4.992s0.633,4.836,0.633,8.461v25.688c0,1.531,0.109,2.602,0.328,3.211
		c0.217,0.609,0.592,0.914,1.125,0.914c0.498,0,0.961-0.117,1.383-0.352s0.961-0.586,1.617-1.055l0.938,1.641
		c-1.5,1.25-3.252,2.148-5.25,2.695c-2,0.547-4.406,0.82-7.219,0.82c-3.375,0-5.854-0.68-7.43-2.039
		c-1.578-1.359-2.398-3.101-2.461-5.227c-1.344,2.22-3.234,3.984-5.672,5.297s-5.127,1.969-8.062,1.969c-3.781,0-6.744-1-8.883-3
		c-2.141-1.999-3.211-4.671-3.211-8.016c0-3.281,0.984-6.016,2.953-8.203c1.969-2.187,5.045-3.968,9.234-5.344
		c3.404-1.219,5.93-2.18,7.57-2.883s3.016-1.547,4.125-2.531c1.107-0.984,1.664-2.148,1.664-3.492v-8.578
		C626.127,131.503,625.617,129.683,624.604,128.073z M622.377,150.269c-3.125,3.031-4.688,6.641-4.688,10.828
		c0,4.531,1.623,6.797,4.875,6.797c1.342,0,2.531-0.531,3.562-1.594v-20.25C625.658,146.831,624.408,148.237,622.377,150.269z"/>
	<path fill="#493632" d="M689.361,123.737c5.092,0,8.701,1.282,10.828,3.844c0.967,1.156,1.68,2.711,2.133,4.664
		c0.451,1.953,0.68,4.54,0.68,7.758v26.016c0,1.781,0.17,3.172,0.516,4.172c0.344,1.001,0.896,1.704,1.664,2.109
		c0.766,0.406,1.82,0.609,3.164,0.609v2.016c-6.875-0.25-11.344-0.375-13.406-0.375c-2.221,0-6.768,0.125-13.641,0.375v-2.016
		c1.125,0,1.998-0.203,2.625-0.609c0.625-0.405,1.078-1.102,1.359-2.086s0.422-2.383,0.422-4.195V134.8
		c0-2.062-0.375-3.586-1.125-4.57s-1.939-1.477-3.562-1.477c-1.189,0-2.314,0.297-3.375,0.891c-1.062,0.594-1.922,1.414-2.578,2.461
		c-0.656,1.047-0.984,2.227-0.984,3.539v30.375c0,1.781,0.141,3.172,0.422,4.172c0.281,1.001,0.742,1.704,1.383,2.109
		c0.639,0.406,1.523,0.609,2.648,0.609v2.016c-6.5-0.25-10.734-0.375-12.703-0.375c-2.221,0-7.016,0.125-14.391,0.375v-2.016
		c1.342,0,2.406-0.203,3.188-0.609c0.779-0.405,1.342-1.108,1.688-2.109c0.344-1,0.516-2.391,0.516-4.172V135.55
		c0-2.969-0.406-5.117-1.219-6.445c-0.814-1.328-2.203-1.992-4.172-1.992v-2.016c2.031,0.188,4.014,0.281,5.953,0.281
		c6.656,0,12.217-0.438,16.688-1.312v6.891C676.986,126.144,682.078,123.737,689.361,123.737z"/>
	<path fill="#816A64" d="M345.207,242.225c-0.267,0.268-0.7,0.718-1.3,1.351c-0.6,0.634-1.35,1.267-2.25,1.899
		c-0.9,0.635-1.917,1.2-3.05,1.7c-1.135,0.5-2.367,0.75-3.7,0.75c-1.734,0-3.284-0.416-4.65-1.25c-1.367-0.833-2.617-1.95-3.75-3.35
		h-0.2c0,3.467-0.817,6.767-2.45,9.899c-1.635,3.135-3.8,5.885-6.5,8.25c-2.7,2.367-5.785,4.234-9.25,5.601
		c-3.467,1.365-7.067,2.05-10.8,2.05c-2.2,0-4.334-0.234-6.4-0.7c-2.067-0.467-3.9-1.232-5.5-2.3c-1.6-1.065-2.884-2.466-3.85-4.2
		c-0.967-1.732-1.45-3.865-1.45-6.4c0-3.8,0.9-7.232,2.7-10.3c1.8-3.065,4.116-5.683,6.95-7.85c2.833-2.166,6.033-3.815,9.6-4.95
		c3.565-1.133,7.083-1.7,10.55-1.7c2.866,0,5.233,0.4,7.1,1.2c1.866,0.8,3.45,1.784,4.75,2.95c1.3,1.167,2.4,2.45,3.3,3.85
		c0.9,1.4,1.8,2.685,2.7,3.851c0.9,1.167,1.9,2.149,3,2.949c1.1,0.801,2.483,1.2,4.15,1.2c1.533,0,3.116-0.45,4.75-1.35
		c1.633-0.9,3.216-2.216,4.75-3.95L345.207,242.225z M311.507,231.925c-1.6,0-3.217,0.55-4.85,1.65c-1.634,1.1-3.217,2.534-4.75,4.3
		c-1.534,1.767-2.967,3.767-4.3,6c-1.334,2.234-2.5,4.484-3.5,6.75c-1,2.267-1.785,4.467-2.35,6.6c-0.567,2.135-0.85,4-0.85,5.601
		c0,1.534,0.35,2.767,1.05,3.699c0.7,0.935,1.683,1.4,2.95,1.4c1.6,0,3.216-0.55,4.85-1.65c1.633-1.1,3.215-2.532,4.75-4.3
		c1.533-1.766,2.965-3.766,4.3-6c1.333-2.232,2.5-4.482,3.5-6.75c1-2.266,1.783-4.482,2.35-6.649c0.565-2.166,0.85-4.016,0.85-5.551
		c0-1.532-0.35-2.766-1.05-3.699C313.757,232.392,312.773,231.925,311.507,231.925z"/>
	<path fill="#816A64" d="M346.106,232.725c2.133-3.933,4.565-7.95,7.3-12.05c2.733-4.1,5.833-7.8,9.3-11.1
		c3.466-3.301,7.333-6,11.601-8.101c4.266-2.1,8.965-3.149,14.1-3.149c3.933,0,7.183,0.767,9.75,2.3
		c2.565,1.534,3.85,4.067,3.85,7.6c0,1.468-0.334,2.75-1,3.851c-0.667,1.1-1.534,2.017-2.6,2.75c-1.067,0.734-2.25,1.3-3.551,1.699
		c-1.299,0.4-2.584,0.601-3.85,0.601c-0.734,0-1.534-0.065-2.4-0.2c-0.867-0.133-1.634-0.4-2.299-0.8
		c1.532-1.601,2.732-3.216,3.6-4.851c0.865-1.633,1.3-3.315,1.3-5.05c0-1.6-0.367-3.05-1.101-4.35c-0.734-1.3-2.033-1.95-3.899-1.95
		c-1.867,0-3.884,0.834-6.05,2.5c-2.168,1.667-4.435,3.967-6.801,6.9c-2.367,2.934-4.783,6.399-7.25,10.399s-4.967,8.335-7.5,13h24
		l-0.899,1.601h-23.9c-2.334,4.534-4.75,9.334-7.25,14.399c-2.5,5.067-5.167,10.034-8,14.9c-2.834,4.865-5.917,9.516-9.25,13.95
		c-3.333,4.433-7.083,8.332-11.25,11.699c-4.166,3.366-8.766,6.051-13.8,8.051c-5.033,2-10.683,3-16.95,3
		c-2.066,0-4.2-0.301-6.4-0.9c-2.2-0.6-4.215-1.5-6.05-2.7c-1.833-1.2-3.333-2.717-4.5-4.55c-1.166-1.834-1.75-3.95-1.75-6.35
		c0-2.668,0.567-4.885,1.7-6.65c1.134-1.768,2.6-3.167,4.4-4.2c1.8-1.034,3.8-1.767,6-2.2c2.2-0.434,4.367-0.649,6.5-0.649
		c1.2,0,2.217,0.1,3.05,0.3c0.834,0.2,1.617,0.365,2.35,0.5v0.8c-3.6,0-6.5,1.065-8.7,3.2c-2.2,2.133-3.3,5-3.3,8.6
		c0,1.733,0.234,3.4,0.7,5c0.467,1.601,1.167,3,2.1,4.2c0.935,1.2,2.1,2.166,3.5,2.9c1.4,0.732,3.035,1.1,4.9,1.1
		c3.534,0,6.884-1.05,10.05-3.149c3.167-2.101,6.167-4.867,9-8.301c2.834-3.434,5.55-7.399,8.15-11.899s5.15-9.133,7.65-13.9
		c2.5-4.766,4.95-9.5,7.35-14.2c2.4-4.699,4.833-9.016,7.3-12.949h-8.3l0.8-1.601H346.106z"/>
	<path fill="#493632" d="M425.983,218.987c0-5.594-0.219-11.938-0.656-19.031c6.094,0.188,16.562,0.281,31.406,0.281
		c14.781,0,25.202-0.094,31.266-0.281c-0.438,7.094-0.656,13.438-0.656,19.031c0,2.938,0.094,5.234,0.281,6.891h-2.203
		c-2.094-8.406-4.805-14.461-8.133-18.164s-6.914-5.555-10.758-5.555h-0.094v54.938c0,2.688,0.273,4.641,0.82,5.859
		c0.546,1.219,1.539,2.031,2.977,2.438c1.437,0.406,3.719,0.609,6.844,0.609v1.922c-9-0.188-16.016-0.281-21.047-0.281
		c-4.531,0-11.109,0.094-19.734,0.281v-1.922c3.124,0,5.406-0.203,6.844-0.609c1.437-0.406,2.43-1.219,2.977-2.438
		c0.546-1.219,0.82-3.172,0.82-5.859v-54.938h-0.094c-3.907,0-7.508,1.836-10.805,5.508c-3.298,3.672-6.008,9.742-8.133,18.211
		h-2.203C425.89,224.222,425.983,221.925,425.983,218.987z"/>
	<path fill="#493632" d="M515.421,263.19c0.344,1,0.906,1.703,1.688,2.109c0.78,0.406,1.844,0.609,3.188,0.609v2.016
		c-6.875-0.25-11.422-0.375-13.641-0.375c-2.22,0-7.016,0.125-14.391,0.375v-2.016c1.343,0,2.406-0.203,3.188-0.609
		c0.78-0.406,1.343-1.109,1.688-2.109c0.344-1,0.516-2.391,0.516-4.172V228.55c0-2.969-0.406-5.117-1.219-6.445
		c-0.813-1.328-2.203-1.992-4.172-1.992v-2.016c2.031,0.188,4.015,0.281,5.953,0.281c6.656,0,12.218-0.438,16.688-1.312v41.953
		C514.905,260.8,515.076,262.19,515.421,263.19z M513.452,194.94c1.812,1.406,2.719,3.469,2.719,6.188
		c0,2.688-0.907,4.734-2.719,6.141c-1.812,1.406-4.391,2.109-7.734,2.109c-3.406,0-6-0.695-7.781-2.086s-2.672-3.445-2.672-6.164
		s0.891-4.781,2.672-6.188s4.375-2.109,7.781-2.109C509.062,192.831,511.64,193.534,513.452,194.94z"/>
	<path fill="#493632" d="M603.969,263.19c0.344,1,0.896,1.703,1.664,2.109c0.766,0.406,1.82,0.609,3.164,0.609v2.016
		c-6.875-0.25-11.344-0.375-13.406-0.375c-1.969,0-6.205,0.125-12.703,0.375v-2.016c0.906,0,1.6-0.203,2.086-0.609
		c0.484-0.406,0.836-1.102,1.055-2.086c0.217-0.984,0.328-2.383,0.328-4.195V227.8c0-2.062-0.375-3.586-1.125-4.57
		s-1.939-1.477-3.562-1.477c-1.096,0-2.156,0.328-3.188,0.984s-1.898,1.523-2.602,2.602s-1.133,2.242-1.289,3.492
		c0.094,1.219,0.141,2.609,0.141,4.172v26.016c0,1.812,0.141,3.211,0.422,4.195s0.732,1.68,1.359,2.086
		c0.625,0.406,1.516,0.609,2.672,0.609v2.016c-6.5-0.25-10.672-0.375-12.516-0.375c-2.062,0-6.281,0.125-12.656,0.375v-2.016
		c0.844,0,1.516-0.203,2.016-0.609c0.498-0.406,0.867-1.109,1.102-2.109s0.352-2.391,0.352-4.172V227.8
		c0-2.062-0.299-3.586-0.891-4.57c-0.594-0.984-1.547-1.477-2.859-1.477c-1.189,0-2.314,0.297-3.375,0.891
		c-1.062,0.594-1.922,1.414-2.578,2.461s-0.984,2.227-0.984,3.539v30.375c0,1.812,0.109,3.211,0.328,4.195
		c0.217,0.984,0.578,1.68,1.078,2.086c0.498,0.406,1.188,0.609,2.062,0.609v2.016c-5.877-0.25-9.781-0.375-11.719-0.375
		c-2.221,0-7.016,0.125-14.392,0.375v-2.016c1.343,0,2.406-0.203,3.188-0.609c0.779-0.406,1.342-1.109,1.688-2.109
		c0.344-1,0.516-2.391,0.516-4.172V228.55c0-2.969-0.406-5.117-1.219-6.445c-0.814-1.328-2.204-1.992-4.173-1.992v-2.016
		c1.999,0.188,3.985,0.281,5.954,0.281c6.656,0,12.217-0.438,16.688-1.312v6.891c2.748-4.812,7.516-7.219,14.297-7.219
		c5.125,0,8.748,1.281,10.875,3.844c0.967,1.156,1.656,2.656,2.062,4.5c1.656-3.062,3.812-5.219,6.469-6.469
		c2.654-1.25,5.828-1.875,9.516-1.875c5.092,0,8.701,1.281,10.828,3.844c0.967,1.156,1.68,2.711,2.133,4.664
		c0.451,1.953,0.68,4.539,0.68,7.758v26.016C603.453,260.8,603.623,262.19,603.969,263.19z"/>
	<path fill="#493632" d="M630.781,241.722c0,6.156,1.07,10.539,3.211,13.148c2.139,2.609,4.758,3.914,7.852,3.914
		c4.656,0,8.531-2.141,11.625-6.422l1.641,0.609c-0.908,2.844-2.221,5.492-3.938,7.945c-1.719,2.453-3.938,4.461-6.656,6.023
		s-5.877,2.344-9.469,2.344c-6.721,0-12.102-2.086-16.148-6.258c-4.049-4.172-6.07-10.82-6.07-19.945
		c0-5.938,1.061-10.875,3.188-14.812c2.125-3.938,5.039-6.844,8.742-8.719s7.961-2.812,12.773-2.812
		c12.094,0,18.141,7.172,18.141,21.516h-24.797C630.811,239.003,630.781,240.159,630.781,241.722z M640.555,223.886
		c-0.797-3.266-2.039-4.898-3.727-4.898c-1.752,0-3.158,1.375-4.219,4.125c-1.062,2.75-1.752,7.188-2.062,13.312h11.109
		C641.719,231.331,641.352,227.151,640.555,223.886z"/>
	<path fill="#493632" d="M666.477,258.503c1.107,2.625,2.547,4.672,4.312,6.141c1.764,1.469,3.789,2.203,6.07,2.203
		c1.623,0,2.959-0.445,4.008-1.336c1.047-0.891,1.57-2.195,1.57-3.914c0-1.781-0.369-3.383-1.102-4.805
		c-0.734-1.422-1.635-2.688-2.695-3.797c-1.062-1.109-2.766-2.727-5.109-4.852c-2.719-2.5-4.775-4.484-6.164-5.953
		c-1.391-1.469-2.586-3.18-3.586-5.133c-1.002-1.953-1.5-4.117-1.5-6.492c0-2.75,0.826-5.172,2.484-7.266
		c1.656-2.094,3.859-3.711,6.609-4.852c2.748-1.141,5.734-1.711,8.953-1.711c2.531,0,4.881,0.273,7.055,0.82
		c2.172,0.547,3.85,1.148,5.039,1.805c0.656,0.375,1.234,0.562,1.734,0.562c1.281,0,2.078-1.031,2.391-3.094h1.922
		c-0.252,3.344-0.375,9.109-0.375,17.297h-1.922c-0.5-4.188-1.695-7.742-3.586-10.664c-1.893-2.922-4.635-4.383-8.227-4.383
		c-1.625,0-2.977,0.484-4.055,1.453s-1.617,2.266-1.617,3.891c0,2.156,0.719,4.055,2.156,5.695c1.436,1.641,3.133,3.219,5.086,4.734
		c1.951,1.516,3.381,2.648,4.289,3.398c2.373,1.969,4.266,3.672,5.672,5.109s2.537,3.07,3.398,4.898
		c0.859,1.828,1.289,3.898,1.289,6.211c0,2.844-0.867,5.398-2.602,7.664s-4.078,4.023-7.031,5.273s-6.195,1.875-9.727,1.875
		c-4.002,0-7.297-0.812-9.891-2.438c-2.062-1.062-3.674-1.594-4.828-1.594c-1.219,0-2.109,1.109-2.672,3.328h-1.922
		c0.25-3.656,0.375-10.047,0.375-19.172h1.922C664.607,252.847,665.367,255.878,666.477,258.503z"/>
</g>
<g>
	<circle fill="#FFBE0D" cx="68.199" cy="116.479" r="23.316"/>
	<circle fill="#FFBE0D" cx="164.199" cy="116.479" r="23.316"/>
	<g>
		<path fill="#7C655F" d="M67.984,139.855c-12.754,0-23.131-10.377-23.131-23.133c0-5.986,2.285-11.447,6.029-15.561H27.986
			c2.977,35.092,26.422,64.342,58.357,75.764v-46.152C82.113,136.287,75.458,139.855,67.984,139.855z"/>
		<path fill="#231F20" d="M78.695,116.723c0-5.91-4.803-10.711-10.711-10.711c-5.906,0-10.711,4.801-10.711,10.711
			c0,5.906,4.805,10.713,10.711,10.713C73.892,127.436,78.695,122.629,78.695,116.723z"/>
		<path fill="#493632" d="M219.933,76.496l-17.016-0.098c-8.002-40.646-43.803-71.305-86.793-71.305
			c-42.992,0-78.789,30.658-86.791,71.305L12.32,76.496c-3.428,0.021-6.191,2.816-6.172,6.25c0.014,2.912,2.045,5.344,4.756,5.996
			h64.264c13.014,0,23.598,10.586,23.598,23.598v68.029h0.002l0,0c0,0,2.658,7.627,17.357,17.051
			c14.705-9.424,17.359-17.051,17.359-17.051l0,0l0,0V112.34c0-13.012,10.588-23.598,23.6-23.598h64.262
			c2.717-0.652,4.742-3.084,4.76-5.996C226.123,79.312,223.361,76.518,219.933,76.496z"/>
		<path fill="#7C655F" d="M187.398,116.723c0,12.756-10.377,23.133-23.131,23.133c-7.475,0-14.129-3.568-18.361-9.082v46.152
			c31.934-11.422,55.387-40.672,58.361-75.764h-22.898C185.113,105.275,187.398,110.736,187.398,116.723z"/>
		<path fill="#231F20" d="M174.978,116.723c0-5.91-4.807-10.711-10.711-10.711c-5.908,0-10.713,4.801-10.713,10.711
			c0,5.906,4.805,10.713,10.713,10.713C170.171,127.436,174.978,122.629,174.978,116.723z"/>
	</g>
	<path fill="#493632" d="M27.986,144.346v68.412c0,28.338,13.371,53.547,34.146,69.674c16.404-27.76,21.244-66.902,22.549-92.662
		C60.669,182.072,40.542,165.703,27.986,144.346z"/>
	<g>
		<path fill="#231F20" d="M115.933,197.373c1.188-0.666,2.732-1.609,4.484-2.865c-1.541,0.068-3.086,0.107-4.637,0.107
			c-1.172,0-2.328-0.027-3.484-0.066C113.701,195.75,114.941,196.715,115.933,197.373z"/>
		<path fill="#816A64" d="M143.916,190.668c-10.852,14.99-24.525,20.691-25.148,20.945l-1.938,0.789l-2.057-0.406
			c-2.854-0.561-7.314-2.404-16.715-11.453c-0.4,5.029-0.932,10.373-1.643,15.928c-3.902,30.521-11.467,55.195-22.545,73.66
			c12.547,6.863,26.943,10.775,42.254,10.775c48.68,0,88.143-39.465,88.143-88.148v-69.613
			C191.263,165.971,169.683,183.268,143.916,190.668z"/>
	</g>
</g>
</svg>
